<?xml version="1.0" encoding="UTF-8" standalone="no"?>
<!-- Created with Inkscape (http://www.inkscape.org/) -->

<svg
   width="64"
   height="64"
   viewBox="0 0 16.933333 16.933333"
   version="1.1"
   id="svg1"
   sodipodi:docname="throwit-logo.svg"
   inkscape:version="1.4.4 (dcaf3e7d9e, 2026-05-05)"
   xmlns:inkscape="http://www.inkscape.org/namespaces/inkscape"
   xmlns:sodipodi="http://sodipodi.sourceforge.net/DTD/sodipodi-0.dtd"
   xmlns="http://www.w3.org/2000/svg"
   xmlns:svg="http://www.w3.org/2000/svg">
  <sodipodi:namedview
     id="namedview1"
     pagecolor="#ffffff"
     bordercolor="#000000"
     borderopacity="0.25"
     inkscape:showpageshadow="2"
     inkscape:pageopacity="0.0"
     inkscape:pagecheckerboard="0"
     inkscape:deskcolor="#d1d1d1"
     inkscape:document-units="px"
     inkscape:zoom="11.671309"
     inkscape:cx="23.776253"
     inkscape:cy="33.329594"
     inkscape:window-width="2560"
     inkscape:window-height="1366"
     inkscape:window-x="0"
     inkscape:window-y="0"
     inkscape:window-maximized="1"
     inkscape:current-layer="layer1" />
  <defs
     id="defs1" />
  <g
     inkscape:label="Layer 1"
     inkscape:groupmode="layer"
     id="layer1">
    <path
       style="fill:#000000;fill-opacity:1;stroke-width:0.348454"
       d="M 9.2924821,0.4801212 C 16.221747,-0.23645447 16.961227,3.4850286 16.131555,4.4424393 15.505636,5.1647273 10.338318,5.7661532 8.9144955,6.8087735 8.274891,7.2771357 12.040463,6.1923039 13.149185,7.091759 17.175881,10.358431 16.287917,16.450062 9.8204166,16.435414 -1.4644832,16.409856 -2.8057241,1.7312322 9.2924821,0.4801212 Z"
       id="path2"
       sodipodi:nodetypes="ssssss" />
    <path
       style="fill:#facc15;fill-opacity:1;stroke-width:0.335666"
       d="M 8.7512606,0.81630342 C 15.426228,0.12602549 16.549178,3.1583593 15.645072,3.9780797 15.008286,4.5554304 8.3261178,6.0260867 7.0332148,7.305776 6.4904597,7.8429841 10.830616,6.6245799 11.898649,7.4910257 15.777569,10.637815 15.489969,16.200161 9.2598209,16.186051 -1.6109329,16.161431 -2.9029513,2.0214996 8.7512606,0.81630342 Z"
       id="path1"
       sodipodi:nodetypes="ssssss" />
  </g>
</svg>
